<?xml version="1.0" encoding="UTF-8" standalone="no"?>
<!DOCTYPE svg PUBLIC "-//W3C//DTD SVG 1.1//EN" "http://www.w3.org/Graphics/SVG/1.1/DTD/svg11.dtd">
<svg width="100%" height="100%" viewBox="0 0 95 145" version="1.1" xmlns="http://www.w3.org/2000/svg" xmlns:xlink="http://www.w3.org/1999/xlink" xml:space="preserve" xmlns:serif="http://www.serif.com/" style="fill-rule:evenodd;clip-rule:evenodd;stroke-linejoin:round;stroke-miterlimit:1.41421;">
    <path id="path3304" d="M35.829,13.229L35.829,22.048C26.091,26.274 19.292,36.013 19.292,47.404L19.292,97.565C19.292,112.999 31.787,125.493 47.22,125.493C62.654,125.493 75.149,112.999 75.149,97.565L75.149,47.221C75.149,36.013 68.35,26.274 58.612,21.865L58.612,6.982L58.624,6.985L58.624,0L83.796,0L94.452,13.229L71.608,13.229C82.221,20.833 89.113,33.282 89.113,47.404L89.113,97.565C89.113,114.302 79.317,128.735 65.141,135.447L72.944,144.969L21.681,144.969L29.337,135.464C15.141,128.76 5.328,114.317 5.328,97.565L5.328,47.404C5.328,33.305 12.33,20.806 23.087,13.229L0,13.229L10.657,0L35.829,0L35.829,13.229Z" style="fill:white;fill-rule:nonzero;"/>
</svg>
