<?xml version="1.0" encoding="UTF-8" standalone="no"?>
<!DOCTYPE svg PUBLIC "-//W3C//DTD SVG 1.1//EN" "http://www.w3.org/Graphics/SVG/1.1/DTD/svg11.dtd">
<svg width="100%" height="100%" viewBox="0 0 503 145" version="1.1" xmlns="http://www.w3.org/2000/svg" xmlns:xlink="http://www.w3.org/1999/xlink" xml:space="preserve" xmlns:serif="http://www.serif.com/" style="fill-rule:evenodd;clip-rule:evenodd;stroke-linejoin:round;stroke-miterlimit:1.41421;">
    <path id="path3070" d="M72.875,144.856L21.707,144.856L29.426,135.368C15.233,128.664 5.412,114.218 5.412,97.481L5.412,47.233C5.412,33.2 12.321,20.799 22.92,13.21L0.025,13.21L10.746,0.032L35.948,0.032L35.948,21.818C26.231,26.174 19.438,35.916 19.438,47.233L19.438,97.481C19.438,112.836 31.929,125.333 47.291,125.333C62.646,125.333 75.143,112.843 75.143,97.481L75.143,47.233C75.143,35.916 68.35,26.174 58.634,21.818L58.634,0.032L83.836,0.032L94.557,13.21L71.661,13.21C82.261,20.8 89.17,33.2 89.17,47.233L89.17,97.481C89.17,114.217 79.35,128.661 65.159,135.367L72.875,144.856ZM290.834,36.61C297.678,36.61 303.655,40.337 306.889,45.853L315.633,40.803C310.655,32.267 301.425,26.511 290.834,26.511C274.979,26.511 262.119,39.364 262.119,55.225L262.119,89.676C262.119,105.538 274.972,118.391 290.834,118.391C301.425,118.391 310.655,112.635 315.633,104.099L306.889,99.049C303.655,104.565 297.678,108.292 290.834,108.292C280.573,108.292 272.218,99.944 272.218,89.676L272.218,55.225C272.224,44.958 280.573,36.61 290.834,36.61ZM156.186,26.511C140.331,26.511 127.471,39.364 127.471,55.225L127.471,89.676C127.471,105.538 140.325,118.391 156.186,118.391C172.047,118.391 184.901,105.538 184.901,89.676L184.901,55.225C184.901,39.364 172.047,26.511 156.186,26.511ZM424.865,118.385L408.784,118.385C400.39,118.385 397.006,113.108 397.006,103.496L397.006,26.511L408.11,26.511L408.11,104.306C408.11,107.825 409.593,109.18 411.221,109.18L424.865,109.18L424.865,118.385ZM388.372,118.378L377.243,118.378L369.277,90.474L339.052,90.474L331.086,118.378L320.339,118.378L348.412,26.848L360.3,26.848L388.372,118.378ZM233.858,69.485C244.073,73.926 252.007,79.973 252.007,93.008C252.007,106.989 240.444,118.145 221.893,118.145C209.525,118.145 198.765,113.037 191.104,105.103L197.825,97.306C204.145,103.891 212.883,108.331 222.158,108.331C233.722,108.331 240.58,102.549 240.58,93.948C240.58,84.938 234.124,82.119 225.788,78.353L213.149,72.843C204.949,69.349 195.272,63.03 195.272,50.124C195.272,36.681 207.101,26.731 223.098,26.731C233.586,26.731 242.861,31.165 249.045,37.621L243.127,44.88C237.754,39.773 231.162,36.545 223.098,36.545C213.149,36.545 206.563,41.516 206.563,49.45C206.563,57.922 214.361,61.15 221.218,64.106L233.858,69.485ZM174.802,89.67C174.802,99.937 166.453,108.286 156.186,108.286C145.925,108.286 137.57,99.937 137.57,89.67L137.57,55.219C137.57,44.958 145.919,36.603 156.186,36.603C166.447,36.603 174.802,44.952 174.802,55.219L174.802,89.67ZM354.485,36.331L353.98,36.331C351.322,46.936 348.671,56.989 345.761,67.171L341.716,81.127L366.626,81.127L362.704,67.171C359.794,56.982 357.143,46.936 354.485,36.331ZM448.666,26.672L448.686,26.647L464.139,26.647L464.139,64.209L468.488,64.209L475.061,72.292L443.676,72.292L450.255,64.209L455.823,64.209L455.823,34.73L442.107,34.73L442.109,34.727L442.08,34.727L448.666,26.638L448.666,26.672ZM479.538,49.424L479.538,49.057C476.231,46.484 473.659,43.361 473.659,38.768C473.659,31.234 479.538,26.641 487.623,26.641C495.707,26.641 500.852,31.418 500.852,38.584C500.852,42.81 498.096,46.117 495.156,48.138L495.156,48.322C499.382,50.527 502.689,54.018 502.689,59.714C502.689,66.696 496.442,71.84 487.255,71.84C478.436,71.84 472.005,66.879 472.005,59.897C472.189,54.936 475.496,51.813 479.538,49.424ZM487.623,65.226C490.93,65.226 493.502,63.388 493.502,59.714C493.502,55.855 489.827,54.385 484.315,51.997C482.294,53.834 481.008,56.223 481.008,58.979C480.824,63.021 483.948,65.226 487.623,65.226ZM432.702,26.647L432.702,42.106L424.625,48.679L424.625,26.647L432.702,26.647ZM492.767,39.502C492.767,36.195 490.746,33.807 487.439,33.807C484.683,33.807 482.478,35.46 482.478,38.768C482.478,42.442 485.602,44.096 490.011,45.75C491.849,43.912 492.767,41.707 492.767,39.502Z" style="fill:white;fill-opacity:0.992157;fill-rule:nonzero;"/>
</svg>
