<?xml version="1.0" encoding="UTF-8" standalone="no"?>
<!DOCTYPE svg PUBLIC "-//W3C//DTD SVG 1.1//EN" "http://www.w3.org/Graphics/SVG/1.1/DTD/svg11.dtd">
<svg width="100%" height="100%" viewBox="0 0 192 192" version="1.1" xmlns="http://www.w3.org/2000/svg" xmlns:xlink="http://www.w3.org/1999/xlink" xml:space="preserve" xmlns:serif="http://www.serif.com/" style="fill-rule:evenodd;clip-rule:evenodd;stroke-linejoin:round;stroke-miterlimit:1.41421;">
    <path d="M192,91.723L192,192.013L101.865,192.013L72.434,162.535L119.553,162.535L112.379,153.78C117.293,151.454 121.634,148.118 125.135,144.041L125.297,143.852L125.463,143.655C125.624,143.462 125.784,143.267 125.942,143.071C126.24,142.7 126.532,142.323 126.816,141.941L126.955,141.753L127.057,141.614C127.343,141.22 127.623,140.821 127.895,140.417C128.343,139.749 128.772,139.067 129.179,138.37C129.683,137.507 130.155,136.622 130.593,135.718L130.739,135.413C130.833,135.213 130.926,135.013 131.017,134.812C131.065,134.705 131.113,134.597 131.16,134.49L131.296,134.179L131.423,133.879C131.513,133.667 131.6,133.453 131.686,133.239L131.81,132.923C131.963,132.53 132.109,132.135 132.249,131.736C132.376,131.375 132.498,131.011 132.614,130.645C133.438,128.053 133.995,125.342 134.254,122.544C134.343,121.578 134.397,120.601 134.413,119.614C134.417,119.394 134.419,119.173 134.419,118.951L134.419,72.833C134.419,59.849 128.082,48.404 118.325,41.413L139.328,41.413L129.624,29.366L192,91.723ZM72.441,162.512L72.427,162.528L72.41,162.512L72.441,162.512ZM85.429,29.25L85.433,29.25L119.96,63.777C120.06,64.041 120.155,64.307 120.246,64.575L120.247,64.575C121.111,67.122 121.58,69.842 121.58,72.665L121.58,118.951C121.58,120.652 121.415,122.314 121.1,123.922L121.059,124.129L120.993,124.441C119.723,130.28 116.47,135.374 111.973,138.985L111.76,139.155L111.516,139.344C111.296,139.512 111.074,139.677 110.848,139.838L110.771,139.894C108.694,141.37 106.387,142.546 103.914,143.356L103.843,143.379C103.473,143.499 103.099,143.611 102.722,143.714L102.63,143.74L102.323,143.821C100.271,144.348 98.12,144.628 95.903,144.628C94.911,144.628 93.932,144.572 92.969,144.463L92.953,144.461L92.934,144.459C91.124,144.251 89.371,143.855 87.697,143.291C87.487,143.22 87.278,143.147 87.071,143.071L86.777,142.962C85.897,142.627 85.04,142.246 84.21,141.821L84.209,141.821L84.078,141.753L83.934,141.678L83.66,141.531C83.565,141.479 83.47,141.427 83.375,141.374C82.511,140.89 81.677,140.358 80.878,139.781L80.784,139.713L80.595,139.573C79.532,138.783 78.532,137.913 77.605,136.971C76.331,135.678 75.194,134.251 74.216,132.712C74.06,132.466 73.908,132.217 73.76,131.966C73.502,131.528 73.256,131.081 73.024,130.626L72.893,130.367L72.819,130.216C72.511,129.586 72.229,128.941 71.972,128.283C71.853,127.978 71.739,127.669 71.632,127.358C71.515,127.021 71.406,126.681 71.303,126.338C71.042,125.469 70.827,124.579 70.659,123.673C70.55,123.089 70.461,122.498 70.393,121.901C70.283,120.933 70.226,119.949 70.226,118.951L70.226,72.833L70.227,72.612L70.228,72.545L70.23,72.385L70.231,72.315L70.235,72.128L70.236,72.094L70.243,71.874L70.246,71.813L70.253,71.651L70.256,71.58L70.265,71.41L70.267,71.359L70.281,71.142L70.284,71.09L70.296,70.922L70.301,70.851L70.314,70.69L70.319,70.631L70.338,70.415L70.341,70.378L70.359,70.198L70.366,70.129L70.383,69.973L70.39,69.908L70.399,69.834L70.433,69.556L70.441,69.492L70.484,69.177L70.494,69.109L70.535,68.832L70.544,68.777L70.596,68.463L70.608,68.392L70.659,68.111L70.667,68.068L70.727,67.756L70.742,67.683L70.803,67.393L70.808,67.366L70.878,67.056L70.895,66.983L70.968,66.676L70.969,66.672L71.048,66.362L71.066,66.29L71.149,65.984L71.153,65.969L71.236,65.676L71.256,65.606L71.347,65.304L71.357,65.273L71.444,64.996L71.465,64.93L71.563,64.633L71.577,64.59L71.669,64.324L71.691,64.263L71.797,63.969L71.815,63.92L71.914,63.659L71.934,63.605L72.049,63.315L72.07,63.261L72.177,63.001L72.195,62.956L72.318,62.668L72.342,62.612L72.459,62.349L72.473,62.317L72.604,62.031L72.631,61.974L72.76,61.703C75.39,56.264 79.893,51.924 85.429,49.521L85.429,44.528L85.429,44.427L85.429,41.413L85.429,29.25ZM106.377,49.352C112.146,51.965 116.793,56.612 119.369,62.344L106.377,49.352ZM52.488,41.413L73.715,41.413C69.587,44.32 66.061,48.016 63.353,52.278L52.488,41.413ZM52.488,41.413C52.488,41.413 52.488,41.413 52.488,41.413Z" style="fill:url(#_Linear1);"/>
    <g id="path3304" transform="matrix(0.919405,0,0,0.919405,52.4882,29.2498)">
        <path d="M35.829,13.229L35.829,22.048C26.091,26.274 19.292,36.013 19.292,47.404L19.292,97.565C19.292,112.999 31.787,125.493 47.22,125.493C62.654,125.493 75.149,112.999 75.149,97.565L75.149,47.221C75.149,36.013 68.35,26.274 58.612,21.865L58.612,6.982L58.624,6.985L58.624,0L83.796,0L94.452,13.229L71.608,13.229C82.221,20.833 89.113,33.282 89.113,47.404L89.113,97.565C89.113,114.302 79.317,128.735 65.141,135.447L72.944,144.969L21.681,144.969L29.337,135.464C15.141,128.76 5.328,114.317 5.328,97.565L5.328,47.404C5.328,33.305 12.33,20.806 23.087,13.229L0,13.229L10.657,0L35.829,0L35.829,13.229Z" style="fill:white;fill-rule:nonzero;"/>
    </g>
    <defs>
        <linearGradient id="_Linear1" x1="0" y1="0" x2="1" y2="0" gradientUnits="userSpaceOnUse" gradientTransform="matrix(105.564,76.1978,-76.1978,105.564,86.4364,115.803)"><stop offset="0" style="stop-color:rgb(196,32,35);stop-opacity:1"/><stop offset="0.32" style="stop-color:rgb(196,32,35);stop-opacity:0.14902"/><stop offset="0.62" style="stop-color:rgb(196,32,35);stop-opacity:0.0196078"/><stop offset="1" style="stop-color:rgb(196,32,35);stop-opacity:0"/></linearGradient>
    </defs>
</svg>
